<svg xmlns="http://www.w3.org/2000/svg" viewBox="0 0 600 360" role="img" aria-label="Agent evaluation matrix">
  <rect width="600" height="360" fill="#f7f5ff"/>
  <rect x="36" y="38" width="528" height="284" rx="18" fill="#ffffff" stroke="#ddd6fe" stroke-width="2"/>
  <text x="58" y="76" font-family="Inter, Arial, sans-serif" font-size="18" font-weight="700" fill="#111827">Trace-Level Agent Evaluation</text>
  <g font-family="Inter, Arial, sans-serif" font-size="12" fill="#334155">
    <text x="94" y="118">step</text><text x="188" y="118">tool</text><text x="286" y="118">evidence</text><text x="410" y="118">recovery</text>
  </g>
  <g stroke="#e5e7eb" stroke-width="2">
    <line x1="72" y1="132" x2="528" y2="132"/>
    <line x1="72" y1="178" x2="528" y2="178"/>
    <line x1="72" y1="224" x2="528" y2="224"/>
    <line x1="72" y1="270" x2="528" y2="270"/>
    <line x1="156" y1="98" x2="156" y2="290"/>
    <line x1="250" y1="98" x2="250" y2="290"/>
    <line x1="372" y1="98" x2="372" y2="290"/>
  </g>
  <g fill="#111827" font-family="Inter, Arial, sans-serif" font-size="14" font-weight="700">
    <text x="102" y="160">1</text><text x="102" y="206">2</text><text x="102" y="252">3</text>
  </g>
  <g fill="none" stroke-width="6" stroke-linecap="round" stroke-linejoin="round">
    <path d="m192 151 10 10 22-28" stroke="#059669"/>
    <path d="m300 151 10 10 22-28" stroke="#059669"/>
    <path d="M424 138l28 28M452 138l-28 28" stroke="#dc2626"/>
    <path d="m192 197 10 10 22-28" stroke="#059669"/>
    <path d="M302 184l28 28M330 184l-28 28" stroke="#dc2626"/>
    <path d="m426 197 10 10 22-28" stroke="#059669"/>
    <path d="m192 243 10 10 22-28" stroke="#059669"/>
    <path d="m300 243 10 10 22-28" stroke="#059669"/>
    <path d="m426 243 10 10 22-28" stroke="#059669"/>
  </g>
</svg>
