<svg xmlns="http://www.w3.org/2000/svg" viewBox="0 0 600 360" role="img" aria-label="Editorial illustration of AI agent evaluation">
  <defs>
    <linearGradient id="bg" x1="0" y1="0" x2="1" y2="1">
      <stop offset="0" stop-color="#f5f3ff"/>
      <stop offset="1" stop-color="#f8fafc"/>
    </linearGradient>
    <linearGradient id="panel" x1="0" y1="0" x2="1" y2="1">
      <stop offset="0" stop-color="#ffffff"/>
      <stop offset="1" stop-color="#faf5ff"/>
    </linearGradient>
    <filter id="shadow" x="-20%" y="-20%" width="140%" height="140%">
      <feDropShadow dx="0" dy="14" stdDeviation="18" flood-color="#6d28d9" flood-opacity=".14"/>
    </filter>
  </defs>
  <rect width="600" height="360" fill="url(#bg)"/>
  <rect x="38" y="34" width="524" height="292" rx="24" fill="url(#panel)" filter="url(#shadow)"/>
  <g transform="translate(82 78)">
    <rect x="0" y="0" width="244" height="170" rx="18" fill="#111827"/>
    <rect x="28" y="112" width="24" height="34" rx="6" fill="#8b5cf6"/>
    <rect x="78" y="78" width="24" height="68" rx="6" fill="#a78bfa"/>
    <rect x="128" y="44" width="24" height="102" rx="6" fill="#7c3aed"/>
    <rect x="178" y="92" width="24" height="54" rx="6" fill="#c4b5fd"/>
    <path d="M28 54c36-22 70-24 102-2 34 24 60 22 82 8" fill="none" stroke="#22d3ee" stroke-width="6" stroke-linecap="round" opacity=".9"/>
    <circle cx="204" cy="56" r="18" fill="#f59e0b"/>
    <path d="M194 56l8 8 16-20" stroke="#fff7ed" stroke-width="5" fill="none" stroke-linecap="round" stroke-linejoin="round"/>
  </g>
  <g transform="translate(370 88)">
    <circle cx="72" cy="72" r="60" fill="#ede9fe"/>
    <circle cx="72" cy="72" r="40" fill="#ffffff" stroke="#c4b5fd" stroke-width="4"/>
    <path d="M72 38v34l24 22" stroke="#6d28d9" stroke-width="9" fill="none" stroke-linecap="round" stroke-linejoin="round"/>
    <circle cx="72" cy="72" r="8" fill="#6d28d9"/>
    <path d="M118 120l34 34" stroke="#6d28d9" stroke-width="12" stroke-linecap="round"/>
  </g>
  <g opacity=".55">
    <rect x="82" y="286" width="92" height="12" rx="6" fill="#ddd6fe"/>
    <rect x="192" y="286" width="162" height="12" rx="6" fill="#c4b5fd"/>
    <rect x="82" y="310" width="236" height="12" rx="6" fill="#ede9fe"/>
  </g>
</svg>
