<svg xmlns="http://www.w3.org/2000/svg" viewBox="0 0 600 360" role="img" aria-label="Editorial illustration of federated learning">
  <defs>
    <linearGradient id="bg" x1="0" y1="0" x2="1" y2="1">
      <stop offset="0" stop-color="#ecfeff"/>
      <stop offset="1" stop-color="#f8fafc"/>
    </linearGradient>
    <linearGradient id="cloud" x1="0" y1="0" x2="1" y2="1">
      <stop offset="0" stop-color="#0f766e"/>
      <stop offset="1" stop-color="#14b8a6"/>
    </linearGradient>
    <filter id="shadow" x="-20%" y="-20%" width="140%" height="140%">
      <feDropShadow dx="0" dy="14" stdDeviation="18" flood-color="#0f766e" flood-opacity=".14"/>
    </filter>
  </defs>
  <rect width="600" height="360" fill="url(#bg)"/>
  <rect x="38" y="34" width="524" height="292" rx="24" fill="#ffffff" filter="url(#shadow)"/>
  <g transform="translate(78 82)">
    <rect x="0" y="90" width="100" height="80" rx="16" fill="#ecfeff" stroke="#99f6e4" stroke-width="2"/>
    <rect x="168" y="28" width="112" height="92" rx="18" fill="#f0fdfa" stroke="#5eead4" stroke-width="2"/>
    <rect x="344" y="92" width="104" height="78" rx="16" fill="#ecfeff" stroke="#99f6e4" stroke-width="2"/>
    <g fill="#0f172a">
      <rect x="28" y="118" width="44" height="24" rx="5"/>
      <rect x="204" y="58" width="40" height="24" rx="5"/>
      <rect x="374" y="118" width="44" height="24" rx="5"/>
    </g>
    <g stroke="#94a3b8" stroke-width="5" stroke-linecap="round">
      <path d="M26 154h48"/>
      <path d="M198 94h52"/>
      <path d="M370 154h52"/>
    </g>
    <path d="M118 128c48-70 152-82 212 0" fill="none" stroke="#99f6e4" stroke-width="8" stroke-linecap="round" opacity=".7"/>
    <path d="M128 148c72 48 148 48 194 0" fill="none" stroke="#99f6e4" stroke-width="8" stroke-linecap="round" opacity=".7"/>
    <path d="M224 122c46 0 82 32 82 72h-164c0-40 36-72 82-72z" fill="url(#cloud)"/>
    <circle cx="186" cy="138" r="34" fill="#14b8a6"/>
    <circle cx="262" cy="138" r="34" fill="#0f766e"/>
    <path d="M224 154c-22 11-36 30-36 56h72c0-26-14-45-36-56z" fill="#ccfbf1"/>
  </g>
  <g opacity=".56">
    <circle cx="92" cy="296" r="9" fill="#14b8a6"/>
    <circle cx="124" cy="296" r="9" fill="#0f766e"/>
    <rect x="160" y="289" width="206" height="14" rx="7" fill="#ccfbf1"/>
    <rect x="78" y="314" width="172" height="12" rx="6" fill="#e0f2fe"/>
  </g>
</svg>
