<svg xmlns="http://www.w3.org/2000/svg" viewBox="0 0 600 360" role="img" aria-label="Ferrari federated feature unlearning illustration">
  <defs>
    <linearGradient id="bg" x1="0" y1="0" x2="1" y2="1">
      <stop offset="0" stop-color="#ecfeff"/>
      <stop offset="1" stop-color="#f8fafc"/>
    </linearGradient>
    <linearGradient id="teal" x1="0" y1="0" x2="1" y2="1">
      <stop offset="0" stop-color="#0f766e"/>
      <stop offset="1" stop-color="#14b8a6"/>
    </linearGradient>
    <filter id="shadow" x="-20%" y="-20%" width="140%" height="140%">
      <feDropShadow dx="0" dy="14" stdDeviation="18" flood-color="#0f766e" flood-opacity=".14"/>
    </filter>
  </defs>
  <rect width="600" height="360" fill="url(#bg)"/>
  <rect x="38" y="34" width="524" height="292" rx="24" fill="#ffffff" filter="url(#shadow)"/>
  <g transform="translate(74 78)">
    <rect x="0" y="38" width="180" height="150" rx="22" fill="#0f172a"/>
    <rect x="28" y="66" width="124" height="86" rx="12" fill="#1e293b"/>
    <g opacity=".95">
      <rect x="42" y="80" width="28" height="28" fill="#334155"/>
      <rect x="74" y="80" width="28" height="28" fill="#14b8a6" opacity=".85"/>
      <rect x="106" y="80" width="28" height="28" fill="#475569"/>
      <rect x="42" y="112" width="28" height="28" fill="#475569"/>
      <rect x="74" y="112" width="28" height="28" fill="#f97316" opacity=".58"/>
      <rect x="106" y="112" width="28" height="28" fill="#334155"/>
    </g>
    <circle cx="88" cy="112" r="47" fill="none" stroke="#f97316" stroke-width="6" stroke-dasharray="11 9" opacity=".82"/>
    <path d="M154 34c34 12 54 40 54 78s-20 66-54 78" fill="none" stroke="#99f6e4" stroke-width="7" stroke-linecap="round" opacity=".72"/>
  </g>
  <g transform="translate(318 74)">
    <path d="M92 0c54 0 92 38 92 86 0 58-50 96-92 116C50 182 0 144 0 86 0 38 38 0 92 0z" fill="#ccfbf1"/>
    <circle cx="70" cy="78" r="34" fill="url(#teal)"/>
    <circle cx="120" cy="78" r="34" fill="#0f766e"/>
    <path d="M94 94c-30 13-50 42-50 78h100c0-36-20-65-50-78z" fill="#ecfeff"/>
    <rect x="36" y="198" width="126" height="24" rx="12" fill="#ecfeff" stroke="#99f6e4"/>
    <rect x="50" y="206" width="54" height="8" rx="4" fill="#14b8a6"/>
  </g>
  <g transform="translate(386 158)">
    <circle cx="52" cy="52" r="48" fill="#ffffff" stroke="#99f6e4" stroke-width="3"/>
    <path d="M30 64c12-30 30-44 58-44" fill="none" stroke="#cbd5e1" stroke-width="10" stroke-linecap="round"/>
    <path d="M30 64c9-22 20-34 38-40" fill="none" stroke="#14b8a6" stroke-width="10" stroke-linecap="round"/>
    <circle cx="76" cy="24" r="8" fill="#0f766e"/>
  </g>
  <g font-family="Inter, Arial, sans-serif">
    <text x="74" y="294" font-size="20" font-weight="900" fill="#0f172a">Ferrari Feature Unlearning</text>
    <text x="74" y="318" font-size="13" font-weight="700" fill="#0f766e">lower feature sensitivity, preserve model utility</text>
  </g>
</svg>
