<svg xmlns="http://www.w3.org/2000/svg" viewBox="0 0 600 360" role="img" aria-label="Editorial illustration of possible-state greedy search for a game">
  <defs>
    <linearGradient id="bg" x1="0" y1="0" x2="1" y2="1">
      <stop offset="0" stop-color="#f8fafc"/>
      <stop offset="1" stop-color="#eff6ff"/>
    </linearGradient>
    <linearGradient id="board" x1="0" y1="0" x2="1" y2="1">
      <stop offset="0" stop-color="#0f172a"/>
      <stop offset="1" stop-color="#1e3a8a"/>
    </linearGradient>
    <filter id="shadow" x="-20%" y="-20%" width="140%" height="140%">
      <feDropShadow dx="0" dy="16" stdDeviation="18" flood-color="#1e40af" flood-opacity=".16"/>
    </filter>
  </defs>
  <rect width="600" height="360" fill="url(#bg)"/>
  <rect x="38" y="34" width="524" height="292" rx="24" fill="#ffffff" filter="url(#shadow)"/>
  <g transform="translate(82 64)">
    <rect x="0" y="0" width="292" height="210" rx="22" fill="url(#board)"/>
    <g opacity=".26" stroke="#93c5fd">
      <path d="M40 0v210"/>
      <path d="M88 0v210"/>
      <path d="M136 0v210"/>
      <path d="M184 0v210"/>
      <path d="M232 0v210"/>
      <path d="M0 44h292"/>
      <path d="M0 92h292"/>
      <path d="M0 140h292"/>
      <path d="M0 188h292"/>
    </g>
    <g fill="#f8fafc">
      <circle cx="58" cy="154" r="17"/>
      <circle cx="112" cy="104" r="17"/>
      <circle cx="164" cy="70" r="17"/>
      <circle cx="220" cy="124" r="17"/>
    </g>
    <g fill="#38bdf8">
      <circle cx="58" cy="154" r="7"/>
      <circle cx="112" cy="104" r="7"/>
      <circle cx="164" cy="70" r="7"/>
      <circle cx="220" cy="124" r="7"/>
    </g>
    <path d="M46 166c54-70 104-104 174-42" fill="none" stroke="#38bdf8" stroke-width="5" stroke-linecap="round"/>
  </g>
  <g transform="translate(410 92)">
    <circle cx="54" cy="54" r="52" fill="#dbeafe"/>
    <circle cx="54" cy="54" r="34" fill="#ffffff" stroke="#93c5fd" stroke-width="3"/>
    <path d="M54 26l9 28-9 28-9-28z" fill="#2563eb"/>
    <circle cx="54" cy="54" r="6" fill="#0f172a"/>
    <rect x="12" y="124" width="84" height="28" rx="14" fill="#eff6ff" stroke="#bfdbfe"/>
  </g>
  <g opacity=".58">
    <rect x="82" y="284" width="98" height="12" rx="6" fill="#bfdbfe"/>
    <rect x="196" y="284" width="150" height="12" rx="6" fill="#dbeafe"/>
    <rect x="82" y="308" width="224" height="12" rx="6" fill="#e0f2fe"/>
  </g>
</svg>
