<svg xmlns="http://www.w3.org/2000/svg" viewBox="0 0 600 360" role="img" aria-label="Possible-state greedy search number guessing game illustration">
  <defs>
    <linearGradient id="bg" x1="0" y1="0" x2="1" y2="1">
      <stop offset="0" stop-color="#f8fafc"/>
      <stop offset="1" stop-color="#eff6ff"/>
    </linearGradient>
    <linearGradient id="console" x1="0" y1="0" x2="1" y2="1">
      <stop offset="0" stop-color="#0f172a"/>
      <stop offset="1" stop-color="#1e3a8a"/>
    </linearGradient>
    <linearGradient id="lock" x1="0" y1="0" x2="1" y2="1">
      <stop offset="0" stop-color="#2563eb"/>
      <stop offset="1" stop-color="#38bdf8"/>
    </linearGradient>
    <filter id="shadow" x="-20%" y="-20%" width="140%" height="140%">
      <feDropShadow dx="0" dy="16" stdDeviation="18" flood-color="#1e40af" flood-opacity=".16"/>
    </filter>
  </defs>
  <rect width="600" height="360" fill="url(#bg)"/>
  <rect x="38" y="34" width="524" height="292" rx="24" fill="#ffffff" filter="url(#shadow)"/>
  <g transform="translate(72 70)">
    <rect x="0" y="0" width="306" height="204" rx="22" fill="url(#console)"/>
    <g opacity=".24" stroke="#93c5fd">
      <path d="M36 0v204"/><path d="M82 0v204"/><path d="M128 0v204"/><path d="M174 0v204"/><path d="M220 0v204"/><path d="M266 0v204"/>
      <path d="M0 42h306"/><path d="M0 86h306"/><path d="M0 130h306"/><path d="M0 174h306"/>
    </g>
    <g fill="#f8fafc">
      <circle cx="52" cy="148" r="15"/>
      <circle cx="92" cy="124" r="13"/>
      <circle cx="136" cy="102" r="12"/>
      <circle cx="184" cy="86" r="12"/>
      <circle cx="232" cy="112" r="14"/>
    </g>
    <g fill="#38bdf8">
      <circle cx="52" cy="148" r="6"/>
      <circle cx="92" cy="124" r="5"/>
      <circle cx="136" cy="102" r="5"/>
      <circle cx="184" cy="86" r="5"/>
      <circle cx="232" cy="112" r="6"/>
    </g>
    <path d="M44 154c46-48 91-68 140-68 26 0 48 9 64 26" fill="none" stroke="#38bdf8" stroke-width="5" stroke-linecap="round"/>
    <path d="M42 30h72" stroke="#60a5fa" stroke-width="8" stroke-linecap="round"/>
    <path d="M42 54h112" stroke="#334155" stroke-width="7" stroke-linecap="round"/>
    <path d="M42 78h84" stroke="#334155" stroke-width="7" stroke-linecap="round"/>
  </g>
  <g transform="translate(410 76)">
    <circle cx="62" cy="62" r="58" fill="#dbeafe"/>
    <circle cx="62" cy="62" r="38" fill="#ffffff" stroke="#93c5fd" stroke-width="3"/>
    <path d="M62 30c18 0 30 12 30 30v10h-12V60c0-12-7-19-18-19s-18 7-18 19v10H32V60c0-18 12-30 30-30z" fill="url(#lock)"/>
    <rect x="26" y="66" width="72" height="56" rx="13" fill="#2563eb"/>
    <circle cx="62" cy="92" r="8" fill="#dbeafe"/>
    <path d="M62 98v12" stroke="#dbeafe" stroke-width="5" stroke-linecap="round"/>
    <rect x="18" y="146" width="88" height="30" rx="15" fill="#eff6ff" stroke="#bfdbfe"/>
    <text x="36" y="166" font-family="Inter, Arial, sans-serif" font-size="13" font-weight="800" fill="#2563eb">60%</text>
  </g>
  <g transform="translate(88 294)" opacity=".62">
    <circle cx="0" cy="0" r="8" fill="#38bdf8"/>
    <circle cx="30" cy="0" r="8" fill="#2563eb"/>
    <circle cx="60" cy="0" r="8" fill="#f59e0b"/>
    <rect x="92" y="-7" width="190" height="14" rx="7" fill="#dbeafe"/>
  </g>
  <g font-family="Inter, Arial, sans-serif" fill="#0f172a">
    <text x="74" y="308" font-size="14" font-weight="800">Hidden N and P, state-aware guessing</text>
  </g>
</svg>
