<svg xmlns="http://www.w3.org/2000/svg" viewBox="0 0 600 360" role="img" aria-label="Editorial illustration of reliable AI agent harness engineering">
  <defs>
    <linearGradient id="bg" x1="0" y1="0" x2="1" y2="1">
      <stop offset="0" stop-color="#eef6ff"/>
      <stop offset="1" stop-color="#f8fbff"/>
    </linearGradient>
    <linearGradient id="screen" x1="0" y1="0" x2="1" y2="1">
      <stop offset="0" stop-color="#0f172a"/>
      <stop offset="1" stop-color="#263553"/>
    </linearGradient>
    <filter id="shadow" x="-20%" y="-20%" width="140%" height="140%">
      <feDropShadow dx="0" dy="16" stdDeviation="18" flood-color="#1d4ed8" flood-opacity=".14"/>
    </filter>
  </defs>
  <rect width="600" height="360" fill="url(#bg)"/>
  <rect x="38" y="34" width="524" height="292" rx="24" fill="#ffffff" filter="url(#shadow)"/>
  <g transform="translate(74 76)">
    <rect x="0" y="0" width="230" height="154" rx="18" fill="url(#screen)"/>
    <path d="M36 110c36-58 80-72 130-44 24 13 43 14 58 2" fill="none" stroke="#60a5fa" stroke-width="8" stroke-linecap="round" opacity=".9"/>
    <path d="M38 36h154" stroke="#334155" stroke-width="2"/>
    <path d="M38 58h124" stroke="#334155" stroke-width="2"/>
    <circle cx="58" cy="92" r="9" fill="#22c55e"/>
    <circle cx="116" cy="68" r="7" fill="#38bdf8"/>
    <circle cx="182" cy="82" r="8" fill="#f59e0b"/>
    <rect x="36" y="122" width="150" height="10" rx="5" fill="#334155"/>
  </g>
  <g transform="translate(330 82)">
    <path d="M86 0c50 24 80 60 80 108 0 66-54 114-80 124C60 222 6 174 6 108 6 60 36 24 86 0z" fill="#dbeafe"/>
    <path d="M86 22c34 18 54 44 54 84 0 45-35 79-54 90-19-11-54-45-54-90 0-40 20-66 54-84z" fill="#2563eb"/>
    <path d="M60 108l18 20 42-54" fill="none" stroke="#ffffff" stroke-width="13" stroke-linecap="round" stroke-linejoin="round"/>
    <circle cx="28" cy="54" r="10" fill="#93c5fd"/>
    <circle cx="154" cy="62" r="8" fill="#bfdbfe"/>
    <circle cx="148" cy="178" r="12" fill="#93c5fd"/>
  </g>
  <g opacity=".55">
    <circle cx="104" cy="280" r="7" fill="#60a5fa"/>
    <circle cx="134" cy="280" r="7" fill="#22c55e"/>
    <circle cx="164" cy="280" r="7" fill="#f59e0b"/>
    <rect x="194" y="273" width="190" height="14" rx="7" fill="#dbeafe"/>
  </g>
</svg>
