<svg xmlns="http://www.w3.org/2000/svg" viewBox="0 0 600 360" role="img" aria-label="Harness engineering architecture diagram">
  <rect width="600" height="360" fill="#f8fafc"/>
  <rect x="34" y="34" width="532" height="292" rx="18" fill="#ffffff" stroke="#cbd5e1" stroke-width="2"/>
  <text x="58" y="72" font-family="Inter, Arial, sans-serif" font-size="18" font-weight="700" fill="#0f172a">Agent Harness Control Plane</text>
  <g font-family="Inter, Arial, sans-serif" font-size="13" font-weight="700">
    <rect x="58" y="112" width="104" height="58" rx="10" fill="#eff6ff" stroke="#2563eb" stroke-width="2"/>
    <text x="84" y="146" fill="#1d4ed8">Prompt</text>
    <rect x="220" y="112" width="120" height="58" rx="10" fill="#f8fafc" stroke="#64748b" stroke-width="2"/>
    <text x="248" y="137" fill="#334155">Policy +</text>
    <text x="248" y="154" fill="#334155">Tool Gate</text>
    <rect x="398" y="112" width="118" height="58" rx="10" fill="#ecfdf5" stroke="#059669" stroke-width="2"/>
    <text x="424" y="137" fill="#047857">Grounded</text>
    <text x="428" y="154" fill="#047857">Answer</text>
    <rect x="142" y="228" width="120" height="58" rx="10" fill="#fff7ed" stroke="#ea580c" stroke-width="2"/>
    <text x="168" y="253" fill="#c2410c">Evidence</text>
    <text x="174" y="270" fill="#c2410c">Judge</text>
    <rect x="332" y="228" width="120" height="58" rx="10" fill="#f5f3ff" stroke="#7c3aed" stroke-width="2"/>
    <text x="360" y="253" fill="#6d28d9">Trace +</text>
    <text x="356" y="270" fill="#6d28d9">Metrics</text>
  </g>
  <g fill="none" stroke="#0f172a" stroke-width="2.8" stroke-linecap="round" stroke-linejoin="round">
    <path d="M162 141h52"/>
    <path d="m206 132 10 9-10 9"/>
    <path d="M340 141h52"/>
    <path d="m384 132 10 9-10 9"/>
    <path d="M278 170v40c0 22-19 28-42 28"/>
    <path d="m244 229-10 9 10 9"/>
    <path d="M262 257h64"/>
    <path d="m318 248 10 9-10 9"/>
    <path d="M392 228v-38c0-18 16-26 38-26"/>
  </g>
  <g fill="#94a3b8" font-family="Inter, Arial, sans-serif" font-size="11">
    <text x="62" y="204">fallback routes</text>
    <text x="62" y="220">source checks</text>
    <text x="62" y="236">permission boundaries</text>
  </g>
</svg>
