<svg xmlns="http://www.w3.org/2000/svg" viewBox="0 0 600 360" role="img" aria-label="Medical AI uncertainty dashboard">
  <rect width="600" height="360" fill="#f7fee7"/>
  <rect x="34" y="38" width="532" height="284" rx="18" fill="#ffffff" stroke="#bbf7d0" stroke-width="2"/>
  <text x="58" y="76" font-family="Inter, Arial, sans-serif" font-size="18" font-weight="700" fill="#111827">Explainable Failure in Medical AI</text>
  <g transform="translate(74 104)">
    <rect width="174" height="174" rx="10" fill="#0f172a"/>
    <g opacity=".9">
      <rect x="22" y="22" width="42" height="42" fill="#334155"/>
      <rect x="66" y="22" width="42" height="42" fill="#475569"/>
      <rect x="110" y="22" width="42" height="42" fill="#1e293b"/>
      <rect x="22" y="66" width="42" height="42" fill="#475569"/>
      <rect x="66" y="66" width="42" height="42" fill="#f97316" opacity=".75"/>
      <rect x="110" y="66" width="42" height="42" fill="#334155"/>
      <rect x="22" y="110" width="42" height="42" fill="#1e293b"/>
      <rect x="66" y="110" width="42" height="42" fill="#334155"/>
      <rect x="110" y="110" width="42" height="42" fill="#475569"/>
    </g>
    <circle cx="87" cy="87" r="42" fill="none" stroke="#f97316" stroke-width="4" stroke-dasharray="8 7"/>
  </g>
  <g font-family="Inter, Arial, sans-serif">
    <rect x="296" y="112" width="216" height="36" rx="8" fill="#ecfdf5" stroke="#86efac"/>
    <text x="316" y="135" font-size="13" font-weight="700" fill="#047857">prediction: review required</text>
    <rect x="296" y="170" width="216" height="18" rx="9" fill="#e5e7eb"/>
    <rect x="296" y="170" width="134" height="18" rx="9" fill="#f97316"/>
    <text x="296" y="210" font-size="13" fill="#475569">uncertainty: elevated</text>
    <text x="296" y="236" font-size="13" fill="#475569">evidence: localized heatmap</text>
    <text x="296" y="262" font-size="13" fill="#475569">failure mode: distribution shift</text>
  </g>
</svg>
