<svg xmlns="http://www.w3.org/2000/svg" viewBox="0 0 600 360" role="img" aria-label="Editorial illustration of explainable failure in medical AI">
  <defs>
    <linearGradient id="bg" x1="0" y1="0" x2="1" y2="1">
      <stop offset="0" stop-color="#f0fdf4"/>
      <stop offset="1" stop-color="#fbfff4"/>
    </linearGradient>
    <linearGradient id="scan" x1="0" y1="0" x2="1" y2="1">
      <stop offset="0" stop-color="#0f172a"/>
      <stop offset="1" stop-color="#1e293b"/>
    </linearGradient>
    <filter id="shadow" x="-20%" y="-20%" width="140%" height="140%">
      <feDropShadow dx="0" dy="14" stdDeviation="16" flood-color="#15803d" flood-opacity=".12"/>
    </filter>
  </defs>
  <rect width="600" height="360" fill="url(#bg)"/>
  <rect x="34" y="34" width="532" height="292" rx="24" fill="#ffffff" stroke="#bbf7d0" stroke-width="2" filter="url(#shadow)"/>
  <g font-family="Inter, Arial, sans-serif">
    <text x="62" y="76" font-size="22" font-weight="800" fill="#0f172a">Explainable Failure in Medical AI</text>
  </g>
  <g transform="translate(74 108)">
    <rect width="186" height="174" rx="18" fill="url(#scan)"/>
    <g opacity=".95">
      <rect x="28" y="28" width="42" height="42" fill="#334155"/>
      <rect x="74" y="28" width="42" height="42" fill="#475569"/>
      <rect x="120" y="28" width="42" height="42" fill="#1e293b"/>
      <rect x="28" y="74" width="42" height="42" fill="#475569"/>
      <rect x="74" y="74" width="42" height="42" fill="#f97316" opacity=".78"/>
      <rect x="120" y="74" width="42" height="42" fill="#334155"/>
      <rect x="28" y="120" width="42" height="28" fill="#1e293b"/>
      <rect x="74" y="120" width="42" height="28" fill="#334155"/>
      <rect x="120" y="120" width="42" height="28" fill="#475569"/>
    </g>
    <circle cx="93" cy="93" r="47" fill="none" stroke="#fb923c" stroke-width="6" stroke-dasharray="10 9"/>
  </g>
  <g transform="translate(310 112)" font-family="Inter, Arial, sans-serif">
    <rect x="0" y="0" width="214" height="42" rx="12" fill="#ecfdf5" stroke="#86efac" stroke-width="2"/>
    <text x="22" y="27" font-size="15" font-weight="800" fill="#047857">review required</text>
    <rect x="0" y="76" width="216" height="20" rx="10" fill="#e5e7eb"/>
    <rect x="0" y="76" width="140" height="20" rx="10" fill="#f97316"/>
    <text x="0" y="130" font-size="15" fill="#475569">uncertainty elevated</text>
    <text x="0" y="162" font-size="15" fill="#475569">localized evidence</text>
    <text x="0" y="194" font-size="15" fill="#475569">distribution shift risk</text>
  </g>
</svg>
