<svg xmlns="http://www.w3.org/2000/svg" viewBox="0 0 600 360" role="img" aria-label="Editorial illustration of multimodal robotics interaction">
  <defs>
    <linearGradient id="bg" x1="0" y1="0" x2="1" y2="1">
      <stop offset="0" stop-color="#eef2ff"/>
      <stop offset="1" stop-color="#f8fafc"/>
    </linearGradient>
    <linearGradient id="hand" x1="0" y1="0" x2="1" y2="1">
      <stop offset="0" stop-color="#e0e7ff"/>
      <stop offset="1" stop-color="#93c5fd"/>
    </linearGradient>
    <filter id="shadow" x="-20%" y="-20%" width="140%" height="140%">
      <feDropShadow dx="0" dy="14" stdDeviation="18" flood-color="#4338ca" flood-opacity=".14"/>
    </filter>
  </defs>
  <rect width="600" height="360" fill="url(#bg)"/>
  <rect x="38" y="34" width="524" height="292" rx="24" fill="#ffffff" filter="url(#shadow)"/>
  <g transform="translate(86 70)">
    <rect x="0" y="0" width="190" height="178" rx="24" fill="#111827"/>
    <path d="M66 118c0-34 16-58 45-74 32 14 50 40 50 76 0 33-22 52-50 52-28 0-45-18-45-54z" fill="url(#hand)"/>
    <rect x="42" y="78" width="22" height="72" rx="11" fill="#bfdbfe"/>
    <rect x="78" y="44" width="18" height="74" rx="9" fill="#dbeafe"/>
    <rect x="106" y="34" width="18" height="82" rx="9" fill="#dbeafe"/>
    <rect x="134" y="50" width="18" height="72" rx="9" fill="#bfdbfe"/>
    <circle cx="112" cy="128" r="18" fill="#2563eb"/>
  </g>
  <g transform="translate(330 78)">
    <rect x="16" y="28" width="130" height="112" rx="18" fill="#eff6ff" stroke="#bfdbfe" stroke-width="2"/>
    <rect x="48" y="68" width="66" height="42" rx="10" fill="#ffffff"/>
    <circle cx="68" cy="89" r="6" fill="#2563eb"/>
    <circle cx="96" cy="89" r="6" fill="#2563eb"/>
    <path d="M58 124h48" stroke="#94a3b8" stroke-width="7" stroke-linecap="round"/>
    <g fill="none" stroke="#14b8a6" stroke-width="6" stroke-linecap="round" opacity=".9">
      <path d="M182 68c18 14 18 40 0 56"/>
      <path d="M204 48c34 30 34 76 0 106"/>
      <path d="M0 72c-16 12-16 34 0 46"/>
    </g>
  </g>
  <g opacity=".55">
    <circle cx="92" cy="292" r="8" fill="#2563eb"/>
    <circle cx="122" cy="292" r="8" fill="#14b8a6"/>
    <circle cx="152" cy="292" r="8" fill="#818cf8"/>
    <rect x="182" y="285" width="188" height="14" rx="7" fill="#dbeafe"/>
    <rect x="86" y="312" width="248" height="12" rx="6" fill="#e0e7ff"/>
  </g>
</svg>
