<svg xmlns="http://www.w3.org/2000/svg" viewBox="0 0 600 360" role="img" aria-label="ROS multimodal robotics graph">
  <rect width="600" height="360" fill="#f0fdfa"/>
  <rect x="34" y="38" width="532" height="284" rx="18" fill="#ffffff" stroke="#99f6e4" stroke-width="2"/>
  <text x="58" y="76" font-family="Inter, Arial, sans-serif" font-size="18" font-weight="700" fill="#111827">ROS Multimodal Control Graph</text>
  <g font-family="Inter, Arial, sans-serif" font-size="12" font-weight="700">
    <rect x="70" y="124" width="104" height="52" rx="10" fill="#ecfeff" stroke="#0891b2" stroke-width="2"/>
    <text x="101" y="155" fill="#0e7490">gesture</text>
    <rect x="70" y="218" width="104" height="52" rx="10" fill="#fff7ed" stroke="#ea580c" stroke-width="2"/>
    <text x="110" y="249" fill="#c2410c">voice</text>
    <rect x="248" y="172" width="112" height="52" rx="10" fill="#f8fafc" stroke="#64748b" stroke-width="2"/>
    <text x="271" y="203" fill="#334155">state lock</text>
    <rect x="430" y="124" width="100" height="52" rx="10" fill="#ecfdf5" stroke="#059669" stroke-width="2"/>
    <text x="461" y="155" fill="#047857">device</text>
    <rect x="430" y="218" width="100" height="52" rx="10" fill="#eff6ff" stroke="#2563eb" stroke-width="2"/>
    <text x="462" y="249" fill="#1d4ed8">audio</text>
  </g>
  <g fill="none" stroke="#0f172a" stroke-width="2.8" stroke-linecap="round" stroke-linejoin="round">
    <path d="M174 150c54 0 55 48 68 48"/>
    <path d="M174 244c54 0 55-46 68-46"/>
    <path d="M360 198c42 0 38-48 64-48"/>
    <path d="M360 198c42 0 38 46 64 46"/>
    <path d="m232 188 12 10-12 10M414 140l12 10-12 10M414 234l12 10-12 10"/>
  </g>
  <g font-family="Inter, Arial, sans-serif" font-size="11" fill="#64748b">
    <text x="236" y="116">/gesture_selection</text>
    <text x="238" y="252">/home_assistant/command</text>
  </g>
</svg>
