<svg xmlns="http://www.w3.org/2000/svg" viewBox="0 0 600 360" role="img" aria-label="Editorial illustration of retrieval augmented generation grounding">
  <defs>
    <linearGradient id="bg" x1="0" y1="0" x2="1" y2="1">
      <stop offset="0" stop-color="#fff7ed"/>
      <stop offset="1" stop-color="#f8fafc"/>
    </linearGradient>
    <linearGradient id="paper" x1="0" y1="0" x2="1" y2="1">
      <stop offset="0" stop-color="#ffffff"/>
      <stop offset="1" stop-color="#fff7ed"/>
    </linearGradient>
    <filter id="shadow" x="-20%" y="-20%" width="140%" height="140%">
      <feDropShadow dx="0" dy="14" stdDeviation="14" flood-color="#9a3412" flood-opacity=".12"/>
    </filter>
  </defs>
  <rect width="600" height="360" fill="url(#bg)"/>
  <rect x="42" y="34" width="516" height="292" rx="24" fill="#ffffff" filter="url(#shadow)"/>
  <g transform="translate(82 68)">
    <path d="M34 32c58-24 108-22 150 4v176c-50-28-100-30-150-6z" fill="url(#paper)" stroke="#fed7aa" stroke-width="2"/>
    <path d="M184 36c48-28 100-30 152-4v174c-54-24-104-22-152 6z" fill="#fffaf4" stroke="#fed7aa" stroke-width="2"/>
    <g stroke="#fb923c" stroke-width="6" stroke-linecap="round">
      <path d="M64 76h82"/>
      <path d="M64 106h56"/>
      <path d="M224 82h70"/>
      <path d="M224 114h88"/>
    </g>
    <g stroke="#cbd5e1" stroke-width="5" stroke-linecap="round">
      <path d="M64 142h94"/>
      <path d="M64 170h70"/>
      <path d="M224 150h78"/>
      <path d="M224 178h46"/>
    </g>
    <circle cx="404" cy="100" r="44" fill="none" stroke="#0f766e" stroke-width="12"/>
    <path d="M436 132l44 44" stroke="#0f766e" stroke-width="13" stroke-linecap="round"/>
    <circle cx="404" cy="100" r="17" fill="#99f6e4"/>
  </g>
  <g opacity=".6">
    <rect x="82" y="282" width="120" height="12" rx="6" fill="#fed7aa"/>
    <rect x="82" y="306" width="220" height="12" rx="6" fill="#ccfbf1"/>
    <circle cx="326" cy="312" r="9" fill="#0f766e"/>
  </g>
</svg>
