<svg xmlns="http://www.w3.org/2000/svg" viewBox="0 0 600 360" role="img" aria-label="RAG grounding evidence pipeline">
  <rect width="600" height="360" fill="#fffaf5"/>
  <rect x="34" y="40" width="532" height="280" rx="18" fill="#ffffff" stroke="#fed7aa" stroke-width="2"/>
  <text x="58" y="76" font-family="Inter, Arial, sans-serif" font-size="18" font-weight="700" fill="#111827">RAG Grounding: Context Is Not Evidence</text>
  <g font-family="Inter, Arial, sans-serif" font-size="12" font-weight="700">
    <rect x="58" y="112" width="110" height="170" rx="10" fill="#fffbeb" stroke="#f59e0b" stroke-width="2"/>
    <text x="86" y="138" fill="#92400e">Corpus</text>
    <line x1="78" y1="162" x2="148" y2="162" stroke="#fbbf24" stroke-width="8" stroke-linecap="round"/>
    <line x1="78" y1="190" x2="136" y2="190" stroke="#fde68a" stroke-width="7" stroke-linecap="round"/>
    <line x1="78" y1="218" x2="150" y2="218" stroke="#fde68a" stroke-width="7" stroke-linecap="round"/>
    <line x1="78" y1="246" x2="128" y2="246" stroke="#fde68a" stroke-width="7" stroke-linecap="round"/>
    <rect x="228" y="112" width="126" height="72" rx="10" fill="#f8fafc" stroke="#64748b" stroke-width="2"/>
    <text x="252" y="142" fill="#334155">Retriever</text>
    <text x="252" y="160" fill="#334155">top-k chunks</text>
    <rect x="228" y="220" width="126" height="62" rx="10" fill="#eff6ff" stroke="#2563eb" stroke-width="2"/>
    <text x="249" y="247" fill="#1d4ed8">Evidence</text>
    <text x="263" y="265" fill="#1d4ed8">Judge</text>
    <rect x="414" y="112" width="112" height="170" rx="10" fill="#ecfdf5" stroke="#059669" stroke-width="2"/>
    <text x="443" y="142" fill="#047857">Answer</text>
    <text x="439" y="163" fill="#047857">only if</text>
    <text x="434" y="184" fill="#047857">supported</text>
    <path d="M444 224l18 18 38-48" fill="none" stroke="#059669" stroke-width="8" stroke-linecap="round" stroke-linejoin="round"/>
  </g>
  <g fill="none" stroke="#111827" stroke-width="2.8" stroke-linecap="round" stroke-linejoin="round">
    <path d="M168 148h54"/>
    <path d="m214 139 10 9-10 9"/>
    <path d="M291 184v30"/>
    <path d="m282 206 9 10 9-10"/>
    <path d="M354 251h54"/>
    <path d="m400 242 10 9-10 9"/>
  </g>
</svg>
