<svg xmlns="http://www.w3.org/2000/svg" viewBox="0 0 600 360" role="img" aria-label="Editorial illustration of reward design for grounded agents">
  <defs>
    <linearGradient id="bg" x1="0" y1="0" x2="1" y2="1">
      <stop offset="0" stop-color="#fff7ed"/>
      <stop offset="1" stop-color="#f8fafc"/>
    </linearGradient>
    <linearGradient id="gold" x1="0" y1="0" x2="1" y2="1">
      <stop offset="0" stop-color="#fbbf24"/>
      <stop offset="1" stop-color="#f97316"/>
    </linearGradient>
    <filter id="shadow" x="-20%" y="-20%" width="140%" height="140%">
      <feDropShadow dx="0" dy="14" stdDeviation="18" flood-color="#c2410c" flood-opacity=".12"/>
    </filter>
  </defs>
  <rect width="600" height="360" fill="url(#bg)"/>
  <rect x="38" y="34" width="524" height="292" rx="24" fill="#ffffff" filter="url(#shadow)"/>
  <g transform="translate(82 72)">
    <rect x="0" y="108" width="204" height="94" rx="18" fill="#111827"/>
    <circle cx="54" cy="156" r="24" fill="#60a5fa"/>
    <circle cx="112" cy="156" r="24" fill="#34d399"/>
    <circle cx="170" cy="156" r="24" fill="#fbbf24"/>
    <path d="M54 118c20-40 76-40 116 0" fill="none" stroke="#fb923c" stroke-width="7" stroke-linecap="round"/>
    <path d="M48 156l10 10 20-28" stroke="#fff" stroke-width="6" fill="none" stroke-linecap="round" stroke-linejoin="round"/>
  </g>
  <g transform="translate(336 64)">
    <path d="M82 0l20 44 48 6-35 32 9 48-42-24-42 24 9-48-35-32 48-6z" fill="url(#gold)"/>
    <rect x="0" y="158" width="180" height="34" rx="17" fill="#ffedd5"/>
    <rect x="18" y="166" width="106" height="18" rx="9" fill="#fb923c"/>
    <g stroke="#0f172a" stroke-width="8" stroke-linecap="round">
      <path d="M20 118h124"/>
      <path d="M82 118v54"/>
    </g>
  </g>
  <g opacity=".58">
    <rect x="82" y="286" width="136" height="12" rx="6" fill="#fed7aa"/>
    <rect x="238" y="286" width="92" height="12" rx="6" fill="#fdba74"/>
    <rect x="82" y="310" width="214" height="12" rx="6" fill="#ffedd5"/>
  </g>
</svg>
